<svg xmlns="http://www.w3.org/2000/svg" viewBox="0 0 1254 1254" role="img" aria-label="Nunomaru icon" style="color:#111111;">
  <title>Nunomaru icon</title>
  <path d="M 365 112 L 356 121 L 349 135 L 344 154 L 343 169 L 342 170 L 342 218 L 343 219 L 343 231 L 344 232 L 346 258 L 347 259 L 347 265 L 351 283 L 351 288 L 364 338 L 380 380 L 401 420 L 419 447 L 435 466 L 435 470 L 411 498 L 389 531 L 373 561 L 358 597 L 353 612 L 353 615 L 347 632 L 344 647 L 342 651 L 342 655 L 336 680 L 336 685 L 333 696 L 333 701 L 331 707 L 331 712 L 326 737 L 322 770 L 320 777 L 314 823 L 311 835 L 311 841 L 309 847 L 306 870 L 291 940 L 278 983 L 265 1016 L 242 1060 L 220 1094 L 217 1105 L 217 1110 L 221 1122 L 228 1130 L 243 1137 L 253 1139 L 276 1138 L 291 1134 L 305 1128 L 330 1113 L 353 1102 L 369 1098 L 383 1097 L 384 1098 L 392 1098 L 401 1100 L 417 1107 L 433 1118 L 447 1130 L 468 1142 L 483 1146 L 500 1147 L 501 1146 L 514 1145 L 526 1141 L 545 1131 L 571 1113 L 589 1104 L 611 1098 L 634 1097 L 635 1098 L 643 1098 L 656 1101 L 672 1107 L 685 1114 L 711 1132 L 731 1142 L 746 1146 L 763 1147 L 764 1146 L 771 1146 L 780 1144 L 793 1139 L 806 1131 L 828 1113 L 845 1103 L 857 1099 L 875 1097 L 876 1098 L 890 1099 L 906 1104 L 956 1131 L 974 1137 L 984 1138 L 985 1139 L 1001 1139 L 1015 1136 L 1023 1132 L 1034 1121 L 1037 1113 L 1037 1103 L 1033 1091 L 1006 1049 L 993 1024 L 978 988 L 968 957 L 957 913 L 949 873 L 948 862 L 942 832 L 941 819 L 939 812 L 939 806 L 937 799 L 935 779 L 932 766 L 932 760 L 930 753 L 930 747 L 928 740 L 928 734 L 927 733 L 923 704 L 921 698 L 920 687 L 918 681 L 918 676 L 904 619 L 891 582 L 872 542 L 848 504 L 834 486 L 819 470 L 819 467 L 839 442 L 851 424 L 874 381 L 885 354 L 900 304 L 901 295 L 905 280 L 907 262 L 909 255 L 909 248 L 910 247 L 910 239 L 911 238 L 912 213 L 913 212 L 913 175 L 912 174 L 911 156 L 908 142 L 905 133 L 898 120 L 890 112 L 879 107 L 862 107 L 845 113 L 830 122 L 818 132 L 800 151 L 782 176 L 771 195 L 758 222 L 742 267 L 737 287 L 731 319 L 731 324 L 730 325 L 729 341 L 728 342 L 727 370 L 726 371 L 726 395 L 727 396 L 727 405 L 726 406 L 721 405 L 710 400 L 681 392 L 676 392 L 663 389 L 639 388 L 638 387 L 613 387 L 612 388 L 601 388 L 600 389 L 585 390 L 558 396 L 533 405 L 529 405 L 528 404 L 528 362 L 527 361 L 526 337 L 525 336 L 523 314 L 518 288 L 503 238 L 482 192 L 470 172 L 453 149 L 438 133 L 423 121 L 403 110 L 392 107 L 376 107 Z
    M 505 636 L 521 636 L 530 638 L 543 644 L 551 650 L 559 658 L 566 668 L 573 685 L 574 696 L 575 697 L 575 708 L 574 709 L 573 720 L 570 729 L 560 746 L 545 760 L 533 766 L 522 769 L 499 768 L 483 761 L 475 755 L 469 749 L 461 738 L 457 730 L 452 712 L 453 688 L 456 678 L 466 660 L 478 648 L 485 643 L 496 638 Z
    M 733 636 L 749 636 L 758 638 L 771 644 L 778 649 L 785 656 L 795 670 L 801 686 L 802 698 L 803 699 L 802 714 L 800 722 L 793 738 L 787 747 L 778 756 L 771 761 L 761 766 L 749 769 L 732 769 L 724 767 L 711 761 L 704 756 L 690 740 L 684 728 L 680 713 L 681 687 L 684 677 L 693 661 L 702 651 L 713 643 L 724 638 Z" fill="currentColor" fill-rule="evenodd"/>
</svg>
